<?xml version="1.0" encoding="UTF-8" standalone="no" ?>
<!DOCTYPE svg PUBLIC "-//W3C//DTD SVG 1.1//EN" "http://www.w3.org/Graphics/SVG/1.1/DTD/svg11.dtd">
<svg xmlns="http://www.w3.org/2000/svg" xmlns:xlink="http://www.w3.org/1999/xlink" version="1.1" width="500" height="500" viewBox="0 0 500 500" xml:space="preserve">
<desc>Created with Fabric.js 4.6.0</desc>
<defs>
</defs>
<g transform="matrix(1 0 0 1 240.65 244.27)" id="AFcUfJR-f2GJTWE1c447j"  >
<g style="" vector-effect="non-scaling-stroke"   >
		<g transform="matrix(3.91 0 0 3.91 0 0)" id="RK602IRnNTQg_vAGyZZRP"  >
<path style="stroke: none; stroke-width: 1; stroke-dasharray: none; stroke-linecap: butt; stroke-dashoffset: 0; stroke-linejoin: miter; stroke-miterlimit: 4; fill: rgb(0,0,0); fill-rule: nonzero; opacity: 1;" vector-effect="non-scaling-stroke"  transform=" translate(-40, -40)" d="M 60 4.346 C 71 4.346 80 13.973 80 25.738 C 80 58.45 40 74.762 40 75.65299999999999 L 40 75.65299999999999 C 40 74.763 0 58.54 0 25.738 C 0 13.884 9 4.346 20 4.346 C 31.1 4.346 40 10.835 40 22.689 C 40 10.835 48.9 4.346 60 4.346 z" stroke-linecap="round" />
</g>
		<g transform="matrix(1 0 0 2.06 0 -70.37)" id="HzoQHvNfVzOIjYuc-6tln"  >
<path style="stroke: rgb(112,38,254); stroke-width: 0; stroke-dasharray: none; stroke-linecap: butt; stroke-dashoffset: 0; stroke-linejoin: miter; stroke-miterlimit: 4; fill: rgb(0,0,0); fill-rule: nonzero; opacity: 1;" vector-effect="non-scaling-stroke"  transform=" translate(0, 0)" d="M 0 -2.4032 C 1.32657 -2.4032 2.4032 -1.32657 2.4032 0 C 2.4032 1.32657 1.32657 2.4032 0 2.4032 C -1.32657 2.4032 -2.4032 1.32657 -2.4032 0 C -2.4032 -1.32657 -1.32657 -2.4032 0 -2.4032 z" stroke-linecap="round" />
</g>
		<g transform="matrix(1 0 0 1 -123.68 -93.46)" id="wmEckMFJqpPq9pTZ3Z8M0"  >
<path style="stroke: rgb(124,189,44); stroke-width: 0; stroke-dasharray: none; stroke-linecap: butt; stroke-dashoffset: 0; stroke-linejoin: miter; stroke-miterlimit: 4; fill: rgb(0,0,0); fill-rule: nonzero; opacity: 1;" vector-effect="non-scaling-stroke"  transform=" translate(0, 0)" d="M 0 -8.02753 C 4.43119 -8.02753 8.02753 -4.4312000000000005 8.02753 0 C 8.02753 4.43119 4.4312000000000005 8.02753 0 8.02753 C -4.43119 8.02753 -8.02753 4.4312000000000005 -8.02753 0 C -8.02753 -4.43119 -4.4312000000000005 -8.02753 0 -8.02753 z" stroke-linecap="round" />
</g>
</g>
</g>
</svg>