<?xml version="1.0" encoding="UTF-8" standalone="no" ?>
<!DOCTYPE svg PUBLIC "-//W3C//DTD SVG 1.1//EN" "http://www.w3.org/Graphics/SVG/1.1/DTD/svg11.dtd">
<svg xmlns="http://www.w3.org/2000/svg" xmlns:xlink="http://www.w3.org/1999/xlink" version="1.1" width="512" height="461" viewBox="0 0 512 461" xml:space="preserve">
<desc>Created with Fabric.js 4.6.0</desc>
<defs>
</defs>
<g transform="matrix(1 0 0 1 255.07 231.92)" id="QO1NvT9dM2sef7IFQaPZ7"  >
<g style="" vector-effect="non-scaling-stroke"   >
		<g transform="matrix(0.91 0 0 0.91 -24.28 146.77)" id="evN-cVDElxMqmxBWtwzj-"  >
<path style="stroke: rgb(0,0,0); stroke-width: 27; stroke-dasharray: none; stroke-linecap: butt; stroke-dashoffset: 0; stroke-linejoin: miter; stroke-miterlimit: 4; fill: none; fill-rule: nonzero; opacity: 1;" vector-effect="non-scaling-stroke"  transform=" translate(0, 0)" d="M 0 -75.0711 C 41.43925 -75.0711 75.0711 -41.43925 75.0711 0 C 75.0711 41.43925 41.43925 75.0711 0 75.0711 C -41.43925 75.0711 -75.0711 41.43925 -75.0711 0 C -75.0711 -41.43925 -41.43925 -75.0711 0 -75.0711 z" stroke-linecap="round" />
</g>
		<g transform="matrix(6.28 0 0 0.62 77.76 80.81)" id="RTs1efk73HVLlfDfTWu_U"  >
<path style="stroke: rgb(0,0,0); stroke-width: 0; stroke-dasharray: none; stroke-linecap: butt; stroke-dashoffset: 0; stroke-linejoin: miter; stroke-miterlimit: 4; fill: rgb(0,0,0); fill-rule: nonzero; opacity: 1;" vector-effect="non-scaling-stroke"  transform=" translate(0, 0)" d="M -26.43349 -8.43642 C -26.43349 -18.37593 -25.63396 -26.43349 -24.6477 -26.43349 L 24.647689999999997 -26.43349 L 24.647689999999997 -26.43349 C 25.63396 -26.43349 26.433479999999996 -18.375929999999997 26.433479999999996 -8.436419999999998 L 26.433479999999996 8.436420000000002 L 26.433479999999996 8.436420000000002 C 26.433479999999996 18.375930000000004 25.633949999999995 26.433490000000003 24.647689999999997 26.433490000000003 L -24.6477 26.433490000000003 L -24.6477 26.433490000000003 C -25.63397 26.433490000000003 -26.43349 18.375930000000004 -26.43349 8.436420000000002 z" stroke-linecap="round" />
</g>
		<g transform="matrix(0.91 0 0 0.91 172.87 146.88)" id="4Cl9qU5ObrQN58AjBjhYb"  >
<path style="stroke: rgb(0,0,0); stroke-width: 27; stroke-dasharray: none; stroke-linecap: butt; stroke-dashoffset: 0; stroke-linejoin: miter; stroke-miterlimit: 4; fill: none; fill-rule: nonzero; opacity: 1;" vector-effect="non-scaling-stroke"  transform=" translate(0, 0)" d="M 0 -75.0711 C 41.43925 -75.0711 75.0711 -41.43925 75.0711 0 C 75.0711 41.43925 41.43925 75.0711 0 75.0711 C -41.43925 75.0711 -75.0711 41.43925 -75.0711 0 C -75.0711 -41.43925 -41.43925 -75.0711 0 -75.0711 z" stroke-linecap="round" />
</g>
		<g transform="matrix(0.14 -0.04 0.33 1.23 -107.68 -62.91)" id="9ehYpf_OMMPIXaxNgYW8c"  >
<path style="stroke: rgb(0,0,0); stroke-width: 0; stroke-dasharray: none; stroke-linecap: butt; stroke-dashoffset: 0; stroke-linejoin: miter; stroke-miterlimit: 4; fill: rgb(0,0,0); fill-rule: nonzero; opacity: 1;" vector-effect="non-scaling-stroke"  transform=" translate(0, 0)" d="M -128.99541 -105.8352 C -128.99541 -118.62622999999999 -35.63866999999999 -128.9954 79.52269000000001 -128.9954 L 128.99540000000002 -128.9954 L 128.99540000000002 105.83521000000002 L 128.99540000000002 105.83521000000002 C 128.99540000000002 118.62624000000002 35.638660000000016 128.99541000000002 -79.52269999999999 128.99541000000002 L -128.99541 128.99541000000002 z" stroke-linecap="round" />
</g>
		<g transform="matrix(1.16 0 0 0.38 -184.9 -212.31)" id="HSX8S3258HR05erXROnwk"  >
<path style="stroke: rgb(0,0,0); stroke-width: 0; stroke-dasharray: none; stroke-linecap: butt; stroke-dashoffset: 0; stroke-linejoin: miter; stroke-miterlimit: 4; fill: rgb(0,0,0); fill-rule: nonzero; opacity: 1;" vector-effect="non-scaling-stroke"  transform=" translate(0, 0)" d="M -42.82225 -42.82225 L 42.82224000000001 -42.82225 L 42.82224000000001 42.82224000000001 L -42.82225 42.82224000000001 z" stroke-linecap="round" />
</g>
		<g transform="matrix(1 0 0 0.82 -234.6 -212.31)" id="9IzQsL7r6WxuJoJeQx5Gz"  >
<path style="stroke: rgb(0,0,0); stroke-width: 0; stroke-dasharray: none; stroke-linecap: butt; stroke-dashoffset: 0; stroke-linejoin: miter; stroke-miterlimit: 4; fill: rgb(0,0,0); fill-rule: nonzero; opacity: 1;" vector-effect="non-scaling-stroke"  transform=" translate(0, 0)" d="M 0 -20.08945 C 11.08938 -20.08945 20.08945 -11.08938 20.08945 0 C 20.08945 11.08938 11.08938 20.08945 0 20.08945 C -11.08938 20.08945 -20.08945 11.08938 -20.08945 0 C -20.08945 -11.08938 -11.08938 -20.08945 0 -20.08945 z" stroke-linecap="round" />
</g>
		<g transform="matrix(1.05 0 0 0.14 54.39 6.88)" id="jyaf0mzBwARLWHX5O2i4y"  >
<path style="stroke: rgb(0,0,0); stroke-width: 0; stroke-dasharray: none; stroke-linecap: butt; stroke-dashoffset: 0; stroke-linejoin: miter; stroke-miterlimit: 4; fill: rgb(0,0,0); fill-rule: nonzero; opacity: 1;" vector-effect="non-scaling-stroke"  transform=" translate(0, 0)" d="M -124.23738 -124.23738 L 124.23739 -124.23738 L 124.23739 124.23739 L -124.23738 124.23739 z" stroke-linecap="round" />
</g>
		<g transform="matrix(0.38 0.09 -0.26 1.15 212.93 -58.29)" id="Qb4PJfH0BCHbLcWMCAqSq"  >
<path style="stroke: rgb(0,0,0); stroke-width: 0; stroke-dasharray: none; stroke-linecap: butt; stroke-dashoffset: 0; stroke-linejoin: miter; stroke-miterlimit: 4; fill: rgb(0,0,0); fill-rule: nonzero; opacity: 1;" vector-effect="non-scaling-stroke"  transform=" translate(0, 0)" d="M -46.52293 -46.52293 L 46.52293999999999 -46.52293 L 46.52293999999999 46.52293999999999 L -46.52293 46.52293999999999 z" stroke-linecap="round" />
</g>
		<g transform="matrix(1.35 0 0 0.97 192.04 5.89)" id="RAyNMSfMAfnJo49jvRXU3"  >
<path style="stroke: rgb(0,0,0); stroke-width: 0; stroke-dasharray: none; stroke-linecap: butt; stroke-dashoffset: 0; stroke-linejoin: miter; stroke-miterlimit: 4; fill: rgb(0,0,0); fill-rule: nonzero; opacity: 1;" vector-effect="non-scaling-stroke"  transform=" translate(0, 0)" d="M 0 -19.03211 C 10.50572 -19.03211 19.03211 -10.50573 19.03211 0 C 19.03211 10.50572 10.50573 19.03211 0 19.03211 C -10.50572 19.03211 -19.03211 10.50573 -19.03211 0 C -19.03211 -10.50572 -10.50573 -19.03211 0 -19.03211 z" stroke-linecap="round" />
</g>
		<g transform="matrix(1.64 0 0 0.19 54.34 -152.95)" id="ZemUUNRwQi_ClK4Hyo-EP"  >
<path style="stroke: rgb(0,0,0); stroke-width: 0; stroke-dasharray: none; stroke-linecap: butt; stroke-dashoffset: 0; stroke-linejoin: miter; stroke-miterlimit: 4; fill: rgb(0,0,0); fill-rule: nonzero; opacity: 1;" vector-effect="non-scaling-stroke"  transform=" translate(0, 0)" d="M -120.00802 120.00802 C -120.00802 -12.549179999999993 -107.7281 -120.00803 -92.58005 -120.00803 L 92.58005 -120.00803 L 92.58005 -120.00803 C 107.7281 -120.00803 120.00802 -12.549180000000007 120.00802 120.00802 L 120.00802 120.00802 z" stroke-linecap="round" />
</g>
		<g transform="matrix(-0.87 -0.23 0.26 -0.97 226.73 -115.33)" id="AqmJkNXk2Q6G4pQ8dUhey"  >
<path style="stroke: rgb(0,0,0); stroke-width: 0; stroke-dasharray: none; stroke-linecap: butt; stroke-dashoffset: 0; stroke-linejoin: miter; stroke-miterlimit: 4; fill: rgb(0,0,0); fill-rule: nonzero; opacity: 1;" vector-effect="non-scaling-stroke"  transform=" translate(0, 0)" d="M -20.08945 -20.08945 L 20.08945 -20.08945 L 20.08945 20.08945 L -20.08945 20.08945 z" stroke-linecap="round" />
</g>
		<g transform="matrix(1 0 0 1 -155.61 -214.07)" id="4vwkY8Fp8IebxyECtm4vj"  >
<path style="stroke: rgb(0,0,0); stroke-width: 4; stroke-dasharray: none; stroke-linecap: round; stroke-dashoffset: 0; stroke-linejoin: round; stroke-miterlimit: 10; fill: none; fill-rule: nonzero; opacity: 1;" vector-effect="non-scaling-stroke"  transform=" translate(-104.04, -26.92)" d="M 104.02498805943297 26.922039053728838 L 104.06498805943296 26.922039053728838" stroke-linecap="round" />
</g>
		<g transform="matrix(1 0 0 1 -137.14 -225.8)" id="PP0o-wVRDDNG9Nm9cKucx"  >
<path style="stroke: rgb(0,0,0); stroke-width: 4; stroke-dasharray: none; stroke-linecap: round; stroke-dashoffset: 0; stroke-linejoin: round; stroke-miterlimit: 10; fill: none; fill-rule: nonzero; opacity: 1;" vector-effect="non-scaling-stroke"  transform=" translate(-122.52, -15.2)" d="M 122.15821718909548 15.199126087476614 Q 122.16221718909549 15.199126087476614 122.51745697595162 15.199126087476614 L 122.87669676280775 15.199126087476614" stroke-linecap="round" />
</g>
		<g transform="matrix(1 0 0 1 -135.72 -226.51)" id="XuuBtAGYBK3MLpwePk9OD"  >
<path style="stroke: rgb(0,0,0); stroke-width: 4; stroke-dasharray: none; stroke-linecap: round; stroke-dashoffset: 0; stroke-linejoin: round; stroke-miterlimit: 10; fill: none; fill-rule: nonzero; opacity: 1;" vector-effect="non-scaling-stroke"  transform=" translate(-123.94, -14.49)" d="M 123.93441612337612 14.488646513764351 L 123.94241612337613 14.488646513764351" stroke-linecap="round" />
</g>
		<g transform="matrix(1 0 0 1 -134.8 -225.77)" id="22YZ5SPCi3eZdgQtAP17I"  >
<path style="stroke: rgb(0,0,0); stroke-width: 4; stroke-dasharray: none; stroke-linecap: round; stroke-dashoffset: 0; stroke-linejoin: round; stroke-miterlimit: 10; fill: none; fill-rule: nonzero; opacity: 1;" vector-effect="non-scaling-stroke"  transform=" translate(-124.86, -15.23)" d="M 124.85611617909696 15.225509170621791 L 124.86411617909697 15.225509170621791" stroke-linecap="round" />
</g>
		<g transform="matrix(0 0 0 1.05 -134.58 -226.39)" id="8zIfxiKdYIlx9uKwP9GTQ"  >
<path style="stroke: rgb(0,0,0); stroke-width: 4; stroke-dasharray: none; stroke-linecap: round; stroke-dashoffset: 0; stroke-linejoin: round; stroke-miterlimit: 10; fill: none; fill-rule: nonzero; opacity: 1;" vector-effect="non-scaling-stroke"  transform=" translate(-125.07, -14.61)" d="M 125.06166602493458 14.608859633108942 L 125.06966602493459 14.608859633108942" stroke-linecap="round" />
</g>
		<g transform="matrix(1 0 0 1 249.23 -130.22)" id="0lbQqcSWOz7C0sNwMUqT3"  >
<path style="stroke: rgb(0,0,0); stroke-width: 4; stroke-dasharray: none; stroke-linecap: round; stroke-dashoffset: 0; stroke-linejoin: round; stroke-miterlimit: 10; fill: none; fill-rule: nonzero; opacity: 1;" vector-effect="non-scaling-stroke"  transform=" translate(-508.89, -110.78)" d="M 508.88399247660595 110.77958500934263 L 508.891992476606 110.77958500934263" stroke-linecap="round" />
</g>
		<g transform="matrix(1 0 0 1 212.98 -0.63)" id="ib8U6s2brcSMrjUoLaDpk"  >
<path style="stroke: rgb(0,0,0); stroke-width: 4; stroke-dasharray: none; stroke-linecap: round; stroke-dashoffset: 0; stroke-linejoin: round; stroke-miterlimit: 10; fill: none; fill-rule: nonzero; opacity: 1;" vector-effect="non-scaling-stroke"  transform=" translate(-472.63, -240.37)" d="M 469.2556196980366 238.88896318771387 Q 469.2596196980366 238.88896318771387 469.40754869211946 238.88896318771387 Q 469.55547768620227 238.88896318771387 469.7034066802851 238.88896318771387 Q 469.851335674368 238.88896318771387 469.9992646684508 239.0368921817967 Q 470.14719366253365 239.18482117587956 470.2951226566165 239.18482117587956 Q 470.4430516506993 239.18482117587956 470.73890963886504 239.18482117587956 Q 471.0347676270307 239.18482117587956 471.18269662111356 239.3327501699624 Q 471.33062561519637 239.48067916404523 471.47855460927923 239.48067916404523 Q 471.6264836033621 239.48067916404523 471.7744125974449 239.62860815812806 Q 471.92234159152775 239.7765371522109 472.2181995796934 239.7765371522109 Q 472.5140575678591 239.7765371522109 472.80991555602475 239.92446614629375 Q 473.10577354419047 240.07239514037659 473.2537025382733 240.22032413445942 Q 473.40163153235613 240.36825312854228 473.549560526439 240.5161821226251 Q 473.6974895205218 240.66411111670794 473.84541851460466 240.66411111670794 Q 473.9933475086875 240.66411111670794 474.2892054968532 240.81204011079078 Q 474.58506348501885 240.9599691048736 474.7329924791017 240.9599691048736 Q 474.88092147318457 240.9599691048736 475.17677946135024 240.9599691048736 Q 475.4726374495159 240.9599691048736 475.62056644359876 240.9599691048736 Q 475.7684954376816 240.9599691048736 475.62056644359876 240.66411111670794 Q 475.4726374495159 240.36825312854228 475.4726374495159 240.22032413445942 Q 475.4726374495159 240.07239514037659 475.62056644359876 239.7765371522109 Q 475.7684954376816 239.48067916404523 475.9164244317644 239.48067916404523 Q 476.0643534258473 239.48067916404523 475.7684954376816 239.62860815812806 Q 475.4726374495159 239.7765371522109 475.4726374495159 239.92446614629375 Q 475.4726374495159 240.07239514037659 475.4726374495159 240.22032413445942 Q 475.4726374495159 240.36825312854228 475.4726374495159 240.5161821226251 Q 475.4726374495159 240.66411111670794 475.3247084554331 240.81204011079078 Q 475.17677946135024 240.9599691048736 475.17677946135024 241.40375608712213 L 475.17677946135024 241.85154306937065" stroke-linecap="round" />
</g>
		<g transform="matrix(1 0 0 1 185.34 22.15)" id="N4tOUtNiJ7t6gTY3plSEQ"  >
<path style="stroke: rgb(0,0,0); stroke-width: 4; stroke-dasharray: none; stroke-linecap: round; stroke-dashoffset: 0; stroke-linejoin: round; stroke-miterlimit: 10; fill: none; fill-rule: nonzero; opacity: 1;" vector-effect="non-scaling-stroke"  transform=" translate(-445, -263.15)" d="M 444.9952646684508 263.1493182172997 L 445.0032646684508 263.1493182172997" stroke-linecap="round" />
</g>
		<g transform="matrix(1 0 0 1 184.75 22.15)" id="s1dmensCbQYEgc5bg_c1p"  >
<path style="stroke: rgb(0,0,0); stroke-width: 4; stroke-dasharray: none; stroke-linecap: round; stroke-dashoffset: 0; stroke-linejoin: round; stroke-miterlimit: 10; fill: none; fill-rule: nonzero; opacity: 1;" vector-effect="non-scaling-stroke"  transform=" translate(-444.41, -263.15)" d="M 444.40354869211944 263.1493182172997 L 444.4115486921195 263.1493182172997" stroke-linecap="round" />
</g>
</g>
</g>
</svg>